<?xml version="1.0" encoding="utf-8"?>
<!-- Generator: Adobe Illustrator 16.0.0, SVG Export Plug-In . SVG Version: 6.00 Build 0)  -->
<!DOCTYPE svg PUBLIC "-//W3C//DTD SVG 1.1//EN" "http://www.w3.org/Graphics/SVG/1.1/DTD/svg11.dtd">
<svg version="1.1"
	 id="svg2759" sodipodi:docname="by.svg" sodipodi:version="0.32" inkscape:version="0.45+devel" inkscape:output_extension="org.inkscape.output.svg.inkscape" xmlns:cc="http://web.resource.org/cc/" xmlns:dc="http://purl.org/dc/elements/1.1/" xmlns:sodipodi="http://sodipodi.sourceforge.net/DTD/sodipodi-0.dtd" xmlns:rdf="http://www.w3.org/1999/02/22-rdf-syntax-ns#" xmlns:svg="http://www.w3.org/2000/svg" xmlns:inkscape="http://www.inkscape.org/namespaces/inkscape"
	 xmlns="http://www.w3.org/2000/svg" xmlns:xlink="http://www.w3.org/1999/xlink" x="0px" y="0px" width="120px" height="42px"
	 viewBox="0 0 120 42" enable-background="new 0 0 120 42" xml:space="preserve">
<sodipodi:namedview  width="120px" height="42px" inkscape:window-y="242" inkscape:window-x="396" inkscape:window-height="624" inkscape:window-width="1198" inkscape:showpageshadow="false" inkscape:current-layer="layer1" inkscape:pageshadow="2" inkscape:pageopacity="0.0" inkscape:document-units="px" id="base" pagecolor="#ffffff" bordercolor="#8b8b8b" borderopacity="1" gridtolerance="10000" inkscape:cx="179" inkscape:cy="89.569904" guidetolerance="10" objecttolerance="10" inkscape:zoom="1">
	</sodipodi:namedview>
<g id="layer1" inkscape:groupmode="layer" inkscape:label="Layer 1">
	
		<g id="g260" transform="matrix(0.9937728,0,0,0.9936696,-177.69267,6.25128e-7)" inkscape:export-ydpi="300.23013" inkscape:export-xdpi="300.23013" inkscape:export-filename="/mnt/hgfs/Bov/Documents/Work/2007/cc/identity/srr buttons/big/by.png">
		<path id="path3817_1_" fill="#AAB2AB" d="M181.966,0.511L296.03,0.714c1.594,0,3.017-0.236,3.017,3.18l-0.14,37.567h-119.82V3.754
			C179.087,2.069,179.25,0.511,181.966,0.511z"/>
		<path id="path263" d="M297.296,0H181.067c-1.247,0-2.261,1.014-2.261,2.261v39.497c0,0.282,0.229,0.51,0.51,0.51h119.73
			c0.282,0,0.511-0.228,0.511-0.51V2.261C299.558,1.014,298.544,0,297.296,0z M181.067,1.022h116.229c0.684,0,1.24,0.556,1.24,1.239
			c0,0,0,15.948,0,27.45h-83.344c-3.045,5.506-8.911,9.244-15.644,9.244c-6.735,0-12.6-3.736-15.643-9.244h-4.078
			c0-11.502,0-27.45,0-27.45C179.828,1.577,180.384,1.022,181.067,1.022z"/>
		<g id="g265" enable-background="new    ">
			<path id="path267" fill="#FFFFFF" d="M253.077,32.957c0.318,0,0.607,0.028,0.871,0.084c0.261,0.056,0.485,0.147,0.672,0.275
				c0.187,0.127,0.332,0.297,0.435,0.508c0.102,0.212,0.154,0.472,0.154,0.784c0,0.336-0.077,0.615-0.23,0.838
				c-0.152,0.225-0.379,0.408-0.678,0.551c0.413,0.118,0.72,0.324,0.924,0.621c0.202,0.295,0.305,0.653,0.305,1.069
				c0,0.336-0.066,0.627-0.197,0.873c-0.131,0.246-0.308,0.446-0.529,0.601c-0.221,0.156-0.474,0.271-0.758,0.346
				c-0.284,0.075-0.575,0.112-0.875,0.112h-3.236v-6.663H253.077L253.077,32.957z M252.89,35.651c0.261,0,0.476-0.063,0.645-0.187
				c0.169-0.124,0.253-0.325,0.253-0.604c0-0.155-0.029-0.283-0.084-0.382c-0.057-0.099-0.132-0.177-0.225-0.233
				c-0.093-0.056-0.201-0.095-0.322-0.116c-0.121-0.022-0.249-0.032-0.378-0.032h-1.374v1.555H252.89z M252.976,38.48
				c0.143,0,0.28-0.014,0.412-0.042c0.13-0.029,0.246-0.076,0.346-0.14c0.1-0.066,0.179-0.154,0.238-0.266
				c0.061-0.112,0.089-0.256,0.089-0.429c0-0.341-0.097-0.586-0.29-0.732c-0.194-0.145-0.449-0.218-0.767-0.218h-1.6v1.828H252.976z
				"/>
			<path id="path269" fill="#FFFFFF" d="M255.788,32.957h1.644l1.56,2.632l1.551-2.632h1.633l-2.473,4.106v2.557h-1.469v-2.595
				L255.788,32.957z"/>
		</g>
		<g id="g5908_1_" transform="matrix(0.872921,0,0,0.872921,50.12536,143.2144)">
			<path id="path5906_1_" fill="#FFFFFF" d="M186.9-141.46c0.006,8.681-7.027,15.721-15.708,15.728
				c-8.68,0.004-15.722-7.028-15.727-15.709c0-0.006,0-0.012,0-0.019c-0.005-8.681,7.028-15.721,15.708-15.727
				c8.682-0.006,15.722,7.028,15.727,15.708C186.9-141.473,186.9-141.466,186.9-141.46z"/>
			<g id="g5706_1_" transform="translate(-289.6157,99.0653)">
				<path id="path5708_1_" d="M473.576-253.328c3.485,3.486,5.229,7.754,5.229,12.802c0,5.05-1.713,9.272-5.138,12.668
					c-3.635,3.577-7.932,5.365-12.889,5.365c-4.898,0-9.12-1.773-12.665-5.32c-3.546-3.545-5.319-7.783-5.319-12.713
					c0-4.928,1.772-9.196,5.319-12.802c3.455-3.486,7.677-5.23,12.665-5.23C465.824-258.557,470.09-256.814,473.576-253.328z
					 M450.458-250.983c-2.947,2.977-4.42,6.463-4.42,10.463c0,3.998,1.458,7.455,4.374,10.37c2.916,2.917,6.389,4.375,10.417,4.375
					c4.028,0,7.53-1.473,10.507-4.419c2.826-2.737,4.24-6.178,4.24-10.326c0-4.118-1.436-7.614-4.308-10.485
					c-2.871-2.871-6.35-4.307-10.438-4.307C456.741-255.312,453.283-253.869,450.458-250.983z M458.212-242.28
					c-0.45-0.982-1.124-1.473-2.023-1.473c-1.59,0-2.384,1.07-2.384,3.209c0,2.139,0.794,3.208,2.384,3.208
					c1.049,0,1.799-0.52,2.249-1.564l2.203,1.173c-1.05,1.866-2.625,2.798-4.725,2.798c-1.62,0-2.918-0.496-3.892-1.488
					c-0.976-0.993-1.463-2.363-1.463-4.109c0-1.715,0.503-3.076,1.508-4.085c1.005-1.008,2.257-1.512,3.758-1.512
					c2.22,0,3.809,0.875,4.771,2.623L458.212-242.28z M468.576-242.28c-0.451-0.982-1.112-1.473-1.982-1.473
					c-1.621,0-2.432,1.07-2.432,3.209c0,2.139,0.811,3.208,2.432,3.208c1.051,0,1.787-0.52,2.207-1.564l2.252,1.173
					c-1.048,1.866-2.621,2.798-4.717,2.798c-1.618,0-2.913-0.496-3.887-1.488c-0.972-0.993-1.459-2.363-1.459-4.109
					c0-1.715,0.495-3.076,1.483-4.085c0.988-1.008,2.245-1.512,3.773-1.512c2.216,0,3.803,0.875,4.761,2.623L468.576-242.28z"/>
			</g>
		</g>
		<g id="g275">
			
				<circle id="circle277" sodipodi:rx="10.80664" sodipodi:cx="255.55124" sodipodi:cy="15.31348" sodipodi:ry="10.80664" fill="#FFFFFF" cx="255.552" cy="15.314" r="10.806">
			</circle>
			<g id="g279">
				<path id="path281" d="M258.678,12.187c0-0.417-0.338-0.754-0.753-0.754h-4.774c-0.415,0-0.753,0.337-0.753,0.754v4.773h1.331
					v5.652h3.617V16.96h1.332V12.187L258.678,12.187z"/>
				
					<circle id="circle283" sodipodi:rx="1.63281" sodipodi:cx="255.53854" sodipodi:cy="9.1723604" sodipodi:ry="1.63281" cx="255.538" cy="9.172" r="1.633">
				</circle>
			</g>
			<path id="path285" d="M255.524,3.407c-3.233,0-5.969,1.128-8.208,3.384c-2.297,2.334-3.446,5.096-3.446,8.285
				c0,3.189,1.149,5.932,3.446,8.226c2.298,2.295,5.034,3.442,8.208,3.442c3.213,0,5.998-1.156,8.353-3.471
				c2.221-2.197,3.331-4.929,3.331-8.196c0-3.268-1.13-6.029-3.388-8.285C261.56,4.535,258.795,3.407,255.524,3.407z M255.553,5.507
				c2.647,0,4.898,0.934,6.747,2.801c1.869,1.847,2.803,4.103,2.803,6.768c0,2.684-0.914,4.91-2.745,6.68
				c-1.929,1.906-4.196,2.859-6.805,2.859c-2.61,0-4.86-0.943-6.747-2.829c-1.891-1.887-2.834-4.123-2.834-6.709
				c0-2.587,0.955-4.843,2.864-6.768C250.666,6.441,252.904,5.507,255.553,5.507z"/>
		</g>
	</g>
</g>
</svg>
