<?xml version="1.0" encoding="utf-8"?>
<!-- Generator: Adobe Illustrator 16.0.0, SVG Export Plug-In . SVG Version: 6.00 Build 0)  -->
<!DOCTYPE svg PUBLIC "-//W3C//DTD SVG 1.1//EN" "http://www.w3.org/Graphics/SVG/1.1/DTD/svg11.dtd">
<svg version="1.1" id="Calque_1" xmlns="http://www.w3.org/2000/svg" xmlns:xlink="http://www.w3.org/1999/xlink" x="0px" y="0px"
	 width="645.586px" height="779.01px" viewBox="0 0 645.586 779.01" enable-background="new 0 0 645.586 779.01"
	 xml:space="preserve">
<path d="M514.814,117.791c0-32.671-26.392-59.063-59.062-59.063S396.69,85.12,396.69,117.791c0,21.858,11.976,40.693,29.531,50.924
	v121.614c0,10.58-5.697,20.463-13.255,24.765l-163.935,80.341v-226.72c17.557-10.231,29.531-29.066,29.531-50.924
	c0-32.671-26.393-59.063-59.062-59.063s-59.062,26.392-59.062,59.063c0,21.858,11.977,40.693,29.531,50.924v370.772
	c-17.556,10.23-29.531,29.064-29.531,50.924c0,32.672,26.394,59.062,59.062,59.062c32.671,0,59.062-26.393,59.062-59.062
	c0-21.857-11.976-40.693-29.531-50.924v-78.363l191.605-93.943c27.555-15.696,44.646-45.227,44.646-76.968V168.715
	C502.84,158.484,514.814,139.649,514.814,117.791z"/>
<text transform="matrix(1 0 0 1 403.0212 691.627)" font-family="'HelveticaNeue-Bold'" font-size="5.8133">Created by ProSymbols</text>
<text transform="matrix(1 0 0 1 403.0212 697.4404)" font-family="'HelveticaNeue-Bold'" font-size="5.8133">from the Noun Project</text>
</svg>
